<svg id="final" xmlns="http://www.w3.org/2000/svg" viewBox="0 0 680.31 680.31"><defs><style>.cls-1{fill:#fff;}</style></defs><title>Zeichenfläche 1</title><path class="cls-1" d="M340.16,198.43a141.11,141.11,0,0,0-59.69,13.15,28.35,28.35,0,1,1-41.89,29.75,141.23,141.23,0,0,0-40.15,98.83,143.76,143.76,0,0,0,1.25,18.9h42.21v-75.6h79.37v37.8h-37.8v37.8h37.8v37.79h-111A141.74,141.74,0,1,0,340.16,198.43Zm56.69,198.42H359.06V359.06h37.79c13,0,20.79-8.47,20.79-18.9s-7.83-18.9-20.79-18.9H359.06v-37.8h37.79c31.31,0,60.47,20.35,60.47,56.7S428.16,396.85,396.85,396.85ZM123,363.58c-10,.5-14.14-7.6-14.44-13.7a29.75,29.75,0,0,1,1.22-9.91l9.87.24.12,2.52c-4.49,1.44-7.31,3.7-7.12,7.44a5.1,5.1,0,0,0,5.54,5.1c3.74-.19,5.51-2.23,7.76-6.25l2.62-4.61c1.94-3.43,4.59-7.56,9.87-7.82,9.67-.48,13.77,6.65,14.21,15.59a24.24,24.24,0,0,1-1.3,9.83l-11.08,1.61-.62-2.66c6-1.6,9.16-5.74,9-9.24-.21-4.22-2.27-6.4-5.85-6.22-2.27.11-4.08,1.5-6,4.94L134.33,355C131.12,360.74,128.07,363.33,123,363.58ZM112.55,296.1c1-5.77,3.27-11.24,4.76-13.2l11.43,2.63-.5,2.89c-6.58.35-10.27,2.59-11.38,9-1.32,7.61,4.06,12.75,15.28,14.69,10.66,1.85,17.87-.7,19.25-8.63,1.29-7.46-3.09-11.27-8-14.35l1.19-2.6L156,290.83a56.37,56.37,0,0,1-.31,13.73c-2.18,12.58-9.32,21.41-25.43,18.62C117,320.89,110.37,308.68,112.55,296.1Zm11-32.11-2.1-1.26c1.15-2.06,3.49-6.63,4.82-9.42s3.26-7.27,4.09-9.4l2.31.82c-1.43,4.55-1.41,5.45,2.85,7.47l9.11,4.32,6.83-14.41-9.12-4.31c-4.26-2-4.94-1.54-7.58,2.52l-2.1-1.26c1.15-2.06,3.35-6.33,4.64-9.05s3.4-7.57,4.27-9.77l2.31.82c-1.47,4.62-1.59,5.82,2.67,7.84l23.16,11c4.26,2,5,1.13,7.69-2.93l2.1,1.26c-1.16,2.06-3.54,6.7-4.86,9.49s-3.19,7.13-4.06,9.33l-2.3-.82c1.46-4.62,1.48-5.42-2.78-7.44l-10.81-5.12-6.82,14.41,10.8,5.12c4.27,2,4.91,1.42,7.52-2.56l2.1,1.26c-1.12,2-3.36,6.33-4.68,9.12s-3.37,7.5-4.23,9.7l-2.31-.82c1.46-4.62,1.66-5.79-2.61-7.81l-23.15-11C127,259.08,126.17,259.93,123.53,264Zm26.69-54.67-1.63-1.84c1.28-1.14,3.94-3.78,6.14-6.18s6.27-7.16,7.53-8.65l1.91,1.53c-2.24,3-3.2,4.8.55,6.6l22.69,11.62s-10.21-19-12.07-20.74c-3.52-3.26-5.8-2.59-8.2-.7l-1.63-1.84c1.28-1.26,3.94-3.78,6.14-6.18s6.6-7.52,7.81-8.95l1.9,1.54c-2.29,3.08-3.41,5.14.29,7l22.41,11.8-12.69-21.87c-1.74-3-3-3.68-6.7-.53L183,170.1c1.27-1.26,3-2.88,4.81-4.85s3.57-4.12,4.67-5.43l1.9,1.53c-1.95,3-1.95,4.4-.45,7.22l17.29,33-3.58,3.89L180.75,193l13.86,26.6L191,223.48l-33.94-15.14C154.46,207.36,152.67,207.26,150.22,209.32Zm55.1-54.2-1.08-2.19c2.08-1.12,6.52-3.69,9.14-5.33,3.31-2.07,15-9.64,17.62-11.39l6.16,9.86-2,1.43c-4.19-4.1-6.8-5.05-10.87-2.51l-4.9,3.06,7.76,12.42,3-1.86c2.49-1.55,2.37-2.82,1-6.74l2.2-1.09c.77,1.54,1.92,3.7,3.3,5.9s2.77,4.12,3.81,5.49l-1.9,1.57c-2.91-3-4-3.71-6.52-2.16l-3,1.85,5.21,8.35c2.42,3.86,5.09,4.3,8.33,2.28l.76-.48c4.14-2.58,4.92-6.24,3.32-12.33l2.33-.88,4.89,11c-2,1.07-15.28,9.16-18.59,11.23-2.63,1.64-6.88,4.49-8.8,5.88l-1.5-1.94c3.73-3.1,4.52-4,2-8l-13.57-21.72C210.92,152.87,209.74,153.13,205.32,155.12Zm43-24.36-.64-2.36c2.26-.69,7.49-2.51,10.3-3.59s8.07-3.25,10.22-4.25l1.1,2.2c-4.41,2.37-5.48,3.22-3.8,7.63l9.14,23.93c1.68,4.41,3,4.25,7.88,3.09l.64,2.37c-2.26.68-7.56,2.53-10.45,3.64s-7.92,3.19-10.06,4.19l-1.1-2.2c4.4-2.37,5.5-3.14,3.82-7.55l-9.14-23.94C254.5,129.52,253.14,129.6,248.27,130.76Zm38.25-3-1.3-12.4c2.9-.41,16.14-2.61,18.94-3.09l12.67-2.17,1.45,2.22-17.16,39.43,10.93-2.21c6.63-1.3,7.66-4.87,8.85-11.42l2.57.05.52,13.11s-14.7,2.36-18.31,3L291,156.83l-1.32-1.92,16.79-39.69-9,1.87c-6.76,1.49-8,3.68-8.26,10.5Zm53.9-10.46c.23-4.71-.89-5.17-5.65-6l.36-2.43c2.35.28,7.46.69,10.54.84,3.9.18,17.81.61,21,.68L366.09,122l-2.44.05c-1.11-5.75-2.71-8-7.51-8.26l-5.76-.28-.71,14.63,3.5.16c2.92.15,3.55-1,4.63-5l2.43.36c-.24,1.69-.52,4.12-.65,6.72s-.07,5,0,6.68l-2.46.21c-.69-4.11-1.2-5.35-4.13-5.49l-3.49-.17-.47,9.83c-.22,4.55,1.72,6.43,5.54,6.62l.9,0c4.87.23,7.6-2.32,9.75-8.24l2.42.6-2.28,11.86c-2.27-.27-17.78-1.18-21.68-1.36-3.08-.15-8.21-.24-10.57-.19l-.13-2.45c4.82-.42,6-.69,6.2-5.4Zm54,41.91.91-2.28c-4.39-2.11-5-2.54-3.72-7.08l2.9-10.08,1,.3a3.5,3.5,0,0,1,2.37,2.63c1.24,3.65,3.09,13.67,3.88,18.55,1.38.23,3.9.87,4.84,1.14,2.42.7,6,1.81,8.12,2.67l.93-2.35c-3.36-1.56-3.94-3.08-4.9-6.49a120.66,120.66,0,0,0-3.94-13.07,11,11,0,0,0-2-3.44c4.62.4,9.6-1.89,10.95-6.58,2.12-7.35-2.67-12.2-10.56-14.47-3-.88-5.87-1.35-9.08-2.28-3-.85-7.85-2.43-10.07-3.24l-.91,2.28c4.43,2,5.42,2.66,4.11,7.19l-7.09,24.62c-1.31,4.53-2.49,4.53-7.28,3.83l-.44,2.41c2.31.5,7.28,1.76,10.25,2.62C387.58,156.94,392.22,158.44,394.45,159.25Zm5.41-37.88,1.72.49c3.36,1,6.09,4.13,4.42,9.91-1.33,4.61-4.5,6.83-8.41,5.7l-2.19-.63Zm28.62,51.49c-2.66-1.41-7.63-3.85-9.79-4.81l.93-2.27c4.69,1.75,6,2.07,8.2-2.1l12-22.64c2.21-4.17,1.25-5.14-2.83-8l1.36-2c2,1.25,6.82,4,9.47,5.39s7.77,3.93,9.93,4.89l-.92,2.27c-4.69-1.75-6-2-8.24,2.17l-12,22.64c-2.21,4.17-1.21,5.07,2.87,8l-1.36,2.05C436.09,177.08,431.21,174.31,428.48,172.86Zm36.41,14.28c1.4-1.8,1.52-4.07.19-7.79l-1.82-4.81c-2.28-6.21-2.26-10.21.84-14.19,6.14-7.9,15-5.76,19.8-2a29.93,29.93,0,0,1,6.72,7.39L484,173.05l-2-1.55c1.84-4.34,2-7.95-1-10.25a5.11,5.11,0,0,0-7.49.88c-2.3,3-1.9,5.62-.32,10l1.78,5c1.33,3.72,2.73,8.41-.51,12.58-6,7.64-14,6.1-21.08.6a24.18,24.18,0,0,1-6.61-7.4l6-9.44,2.42,1.26c-2.72,5.61-1.62,10.69,1.14,12.84C459.69,190.11,462.69,190,464.89,187.14Zm23.44,3.36c10.27-8.64,23.88-5.84,32.1,3.93,3.77,4.48,6.49,9.74,7,12.15l-9.39,7-1.88-2.24c4-5.25,4.63-9.53.45-14.51-5-5.91-12.38-5.11-21.09,2.22-8.28,7-11,14.12-5.8,20.28,4.87,5.79,10.6,4.9,16.13,3.13l1.22,2.58L496.48,231a56.53,56.53,0,0,1-10.3-9.08C478,212.17,475.81,201,488.33,190.5Zm49.11,32.19,2.32-.81c.84,2.21,2.85,6.93,4.15,9.73s3.49,7.17,4.6,9.16L546.4,242c-2.58-4-3.29-4.57-7.57-2.59l-9.15,4.24,6.71,14.47,9.15-4.24c4.28-2,4.34-2.82,2.91-7.45l2.32-.81c.84,2.21,2.71,6.64,4,9.37s3.63,7.45,4.77,9.53l-2.11,1.24c-2.61-4.08-3.45-4.94-7.73-3L526.43,273.6c-4.28,2-4.09,3.15-2.67,7.78l-2.31.8c-.85-2.21-2.89-7-4.19-9.8s-3.43-7-4.57-9.09L514.8,262c2.61,4.08,3.21,4.61,7.49,2.63l10.85-5-6.7-14.46-10.85,5c-4.28,2-4.23,2.85-2.84,7.41l-2.32.8c-.81-2.13-2.71-6.63-4-9.43s-3.6-7.39-4.74-9.46l2.11-1.25c2.61,4.08,3.38,5,7.66,3L534.7,230.5C539,228.52,538.87,227.32,537.44,222.69ZM562.15,284l2.45-.19c.25,2.36,1,7.43,1.52,10.47.67,3.85,3.33,17.5,4,20.61l-11.45,2-.59-2.37c5.37-2.35,7.24-4.42,6.4-9.14l-1-5.69L549,302.26l.61,3.45c.51,2.88,1.73,3.25,5.89,3.42l.18,2.44c-1.71.14-4.14.41-6.7.86s-4.86,1-6.52,1.48l-.74-2.35c3.85-1.59,5-2.36,4.44-5.24l-.6-3.45-9.7,1.71c-4.48.79-5.89,3.11-5.23,6.87l.16.88c.85,4.81,3.94,6.9,10.2,7.7l-.06,2.49-12.07.39c-.24-2.27-2.78-17.59-3.46-21.44-.53-3-1.58-8.06-2.15-10.35l2.36-.67c1.47,4.61,2,5.68,6.64,4.86l25.23-4.45C562.14,290,562.35,288.85,562.15,284Zm9.39,69.55a29.82,29.82,0,0,1-2.18,9.75l-9.8-1.21.12-2.52c4.61-1,7.64-3,7.83-6.7a5.11,5.11,0,0,0-5-5.62c-3.74-.19-5.7,1.67-8.33,5.45L551.1,357c-2.28,3.23-5.32,7.07-10.6,6.81-9.67-.47-13-8-12.61-16.9a24.15,24.15,0,0,1,2.27-9.66l11.18-.52.36,2.71c-6.16,1-9.69,4.82-9.86,8.31-.2,4.23,1.63,6.6,5.21,6.77,2.27.11,4.21-1.1,6.48-4.32l2.9-4.26c3.76-5.43,7.05-7.72,12.09-7.47C568.51,339,571.84,347.47,571.54,353.56Zm-387.76,108-20.61,15.22c-3.8,2.8-3.29,4-.86,8.42l-2.11,1.25c-1.27-2-4.47-6.6-6.31-9.09s-5.2-6.77-6.73-8.58l1.81-1.64c3.47,3.6,4.51,4.46,8.3,1.66l20.61-15.22c3.8-2.8,3.35-4.09.93-8.47l2.11-1.25c1.27,2,4.42,6.54,6.21,9s5.3,6.9,6.83,8.7l-1.82,1.65C188.67,459.57,187.57,458.77,183.78,461.57Zm29.65,19.78c-1.36-1.17-4.33-3.33-6.12-4.87-2.33-2-6.1-5.5-7.77-7.17L197.76,471c3.2,3.64,3.79,4.69.7,8.25L181.68,498.6c-3.09,3.57-4.16,3.07-8.22.41l-1.41,2c1.89,1.42,5.87,4.65,8.2,6.68s5.56,5.25,8.39,7.7c10.45,9.06,22.6,8.94,30.81-.52C229.84,502.89,224.61,491,213.43,481.35Zm-3.34,27.56c-5.81,6.7-12.48,9.31-18.57,4-4.24-3.68-3.68-6.43.26-11l16.83-19.42s1,.73,1.41,1.11C217.76,490.38,217.92,499.88,210.09,508.91Zm38.85-2c2.72,1.48,7.71,4,9.86,5l-1,2.25c-4.66-1.81-6-2.08-8.26,2.06l-12.32,22.47c-2.26,4.14-1.28,5,2.76,8l-1.38,2c-2-1.27-6.84-4.11-9.55-5.6s-7.57-4-9.71-5l1-2.26c4.67,1.82,6,2.16,8.23-2l12.31-22.47c2.27-4.14,1.32-5.12-2.71-8.07l1.38-2C241.53,502.65,246.31,505.45,248.94,506.9Zm38.25,14.53c-9.76-2.84-23,1.18-27,15-4.17,14.29,4.08,24.07,14.69,27.17a21.63,21.63,0,0,0,26.95-15.1C306,534.13,297.81,524.53,287.19,521.43Zm3.86,23.92c-3.17,10.86-7.92,15.82-14.56,13.89-6.4-1.87-8.39-9.57-5.43-19.72,3.17-10.85,7.8-15.69,14.44-13.75C291.9,527.64,294,535.2,291.05,545.35Zm57.83-14.91L348,542.78l-2.61.12c-.85-4.59-2.37-8.82-6.35-9.08l-3.24-.31-1.37,30.39c-.21,4.55,1.65,4.88,7.15,5.7l-.36,2.51c-2.27-.27-9.08-.74-12.17-.88s-9.6-.27-12-.22l-.13-2.52c5.55-.32,7.43-.48,7.64-5L326,533.07l-3.1,0c-3.74-.08-5.77,3.49-7.3,8.47l-2.67-.37L314,528.87c2.1.25,12.17,1,17,1.17S346.85,530.51,348.88,530.44Zm36.86,34.68.13,2.45c-2.36.19-7.93.87-11,1.33s-8.42,1.44-10.73,2l-.6-2.38c4.81-1.38,6-1.9,5.34-6.56l-3.82-25.33c-.71-4.67-2.05-4.88-7.06-4.78l-.12-2.45c2.36-.19,7.85-.85,10.83-1.3s8.58-1.46,10.88-2l.61,2.38c-4.81,1.38-6,2-5.33,6.65l3.82,25.33C379.41,565.09,380.74,565.22,385.74,565.12ZM445.5,545.2l.68,2.44c-2.19.67-6,2.05-8.44,3-1.52.58-3.84,1.56-5,2.18-4.88-3.87-19.28-14.1-19.28-14.1l-1.31,2.95,3.45,9c1.69,4.4,2.49,4.44,7.24,3.4l.64,2.37c-2.25.69-6.79,2.27-9.6,3.35s-7.61,3.1-9.75,4.1l-1.1-2.19c4.24-2.33,5.19-3,3.49-7.45l-9.21-23.9c-1.69-4.41-2.9-4.38-7.61-3.26l-.65-2.36c2.26-.7,7.1-2.39,10-3.5,3-1.17,7.31-3,9.37-4l1.11,2.19c-4.22,2.41-4.78,3-3.06,7.46l4.39,11.38L418.43,522c1.43-3.08,1.2-6-3.91-4.51l-.65-2.36c1.88-.55,4.75-1.48,8.24-2.82,2.65-1,5.75-2.48,7.47-3.23l1.1,2.19c-4.19,2.23-6.13,6-7.53,8.74l-5.5,10.83,17.71,11.57C439.13,545,440.87,545.85,445.5,545.2Zm3.17-50.52c-8.31,5.85-13.41,18.68-5.12,30.45,8.56,12.17,21.35,11.83,30.39,5.47a21.62,21.62,0,0,0,5-30.48C470.34,487.88,457.72,488.31,448.67,494.68Zm22.87,31.94c-5.45,3.83-12.71.59-18.79-8.06-6.51-9.25-7.4-15.88-1.74-19.86,5.45-3.84,12.68-.77,18.76,7.88C476.28,515.82,477.2,522.64,471.54,526.62Zm31.6-74.84L528.9,475l-1.8,3.57-41.66-.77,19.25,15.78c2.88,2.39,4.22,1.29,7.51-1.79l1.78,1.68c-1.38,1.4-4.15,4.49-5.4,6s-3.77,4.8-4.84,6.34l-2-1.37c2.72-4.3,2.46-5.26-.51-7.93l-20-18.13c-2.7-2.35-4.33-1.27-7.31,1.54l-1.77-1.68c1.43-1.46,4.1-4.42,5.24-5.8s3.32-4.12,3.94-4.87l35.35.72-15.84-12.74c-3.12-2.49-4.71-1.59-7.84,1.41l-1.72-1.74c1.37-1.4,3.57-3.8,4.82-5.3s4.19-5.3,5.26-6.84l2,1.37C501.25,447.68,500.24,449.16,503.14,451.78Zm-355.69-26.4a14.17,14.17,0,1,1,8.46-18.16A14.17,14.17,0,0,1,147.45,425.38ZM551,416.91a14.17,14.17,0,1,1-8.47-18.16A14.18,14.18,0,0,1,551,416.91ZM332.6,174.8a7.56,7.56,0,1,1,7.56,7.56A7.56,7.56,0,0,1,332.6,174.8ZM340.16,498a7.56,7.56,0,1,1-7.56,7.56A7.57,7.57,0,0,1,340.16,498ZM306.82,178a7.56,7.56,0,1,1,8.65,6.28A7.57,7.57,0,0,1,306.82,178Zm66.67,324.27a7.56,7.56,0,1,1-8.65-6.28A7.56,7.56,0,0,1,373.49,502.29ZM286.72,175.71a7.56,7.56,0,1,1-4.85,9.52A7.56,7.56,0,0,1,286.72,175.71Zm97.35,324a7.55,7.55,0,1,1,9.52,4.86A7.55,7.55,0,0,1,384.07,499.75ZM258.35,196.26a7.56,7.56,0,1,1,10.17,3.3A7.57,7.57,0,0,1,258.35,196.26ZM422,484.06a7.56,7.56,0,1,1-10.16-3.31A7.54,7.54,0,0,1,422,484.06ZM236.85,210.83a7.56,7.56,0,1,1,10.56,1.67A7.56,7.56,0,0,1,236.85,210.83ZM443.47,469.49a7.56,7.56,0,1,1-10.56-1.67A7.56,7.56,0,0,1,443.47,469.49ZM217.89,228.58a7.56,7.56,0,1,1,10.69,0A7.56,7.56,0,0,1,217.89,228.58ZM462.43,451.74a7.56,7.56,0,1,1-10.69,0A7.56,7.56,0,0,1,462.43,451.74ZM200.27,238.52a7.56,7.56,0,1,1,1.67,10.56A7.56,7.56,0,0,1,200.27,238.52ZM467.82,432.91a7.56,7.56,0,1,1,1.67,10.56A7.56,7.56,0,0,1,467.82,432.91ZM199.56,268.52a7.56,7.56,0,1,1-3.3-10.17A7.56,7.56,0,0,1,199.56,268.52ZM480.75,411.79A7.56,7.56,0,1,1,484.06,422,7.58,7.58,0,0,1,480.75,411.79ZM185.23,281.87a7.56,7.56,0,1,1-9.52,4.85A7.57,7.57,0,0,1,185.23,281.87ZM495.08,398.44a7.55,7.55,0,1,1,9.53-4.85A7.55,7.55,0,0,1,495.08,398.44ZM178,306.82a7.56,7.56,0,1,1-8.65,6.29A7.56,7.56,0,0,1,178,306.82Zm324.27,66.67a7.56,7.56,0,1,1,8.65-6.28A7.56,7.56,0,0,1,502.29,373.49Zm-335-33.33a7.56,7.56,0,1,1,7.56,7.56A7.56,7.56,0,0,1,167.24,340.16Zm345.83,0a7.56,7.56,0,1,1-7.56-7.56A7.56,7.56,0,0,1,513.07,340.16Zm-343.7,27a7.56,7.56,0,1,1,8.65,6.28A7.56,7.56,0,0,1,169.37,367.21Zm332.92-60.39a7.56,7.56,0,1,1-6.28,8.65A7.56,7.56,0,0,1,502.29,306.82ZM175.71,393.59a7.56,7.56,0,1,1,9.52,4.85A7.55,7.55,0,0,1,175.71,393.59Zm328.9-106.87a7.56,7.56,0,1,1-9.53-4.85A7.56,7.56,0,0,1,504.61,286.72ZM186.09,418.66a7.56,7.56,0,1,1,10.17,3.3A7.57,7.57,0,0,1,186.09,418.66Zm308.13-157a7.56,7.56,0,1,1-10.16-3.31A7.54,7.54,0,0,1,494.22,261.66Zm-294,180.13a7.56,7.56,0,1,1,10.56,1.68A7.55,7.55,0,0,1,200.27,441.79ZM480.05,238.52a7.56,7.56,0,1,1-10.56-1.67A7.57,7.57,0,0,1,480.05,238.52ZM228.58,451.74a7.56,7.56,0,1,1-10.69,0A7.56,7.56,0,0,1,228.58,451.74ZM451.74,228.58a7.56,7.56,0,1,1,10.69,0A7.54,7.54,0,0,1,451.74,228.58ZM247.41,467.82a7.56,7.56,0,1,1-10.56,1.67A7.55,7.55,0,0,1,247.41,467.82ZM432.91,212.5a7.56,7.56,0,1,1,10.56-1.67A7.56,7.56,0,0,1,432.91,212.5ZM268.52,480.75a7.56,7.56,0,1,1-10.17,3.31A7.56,7.56,0,0,1,268.52,480.75ZM418.66,186.09a7.56,7.56,0,1,1-10.17,3.3A7.56,7.56,0,0,1,418.66,186.09ZM291.4,490.23a7.56,7.56,0,1,1-9.53,4.85A7.55,7.55,0,0,1,291.4,490.23Zm97.52-300.14a7.56,7.56,0,1,1,9.52-4.86A7.56,7.56,0,0,1,388.92,190.09ZM313.11,510.94a7.56,7.56,0,1,1,8.65-6.28A7.56,7.56,0,0,1,313.11,510.94Zm54.1-341.57a7.56,7.56,0,1,1-8.65,6.29A7.57,7.57,0,0,1,367.21,169.37Zm-27-89.06c-143.51,0-259.85,116.34-259.85,259.85S196.65,600,340.16,600,600,483.66,600,340.16,483.66,80.31,340.16,80.31Zm0,510.24c-138.29,0-250.4-112.1-250.4-250.39s112.11-250.4,250.4-250.4,250.39,112.11,250.39,250.4S478.45,590.55,340.16,590.55Zm0-533.86C183.6,56.69,56.69,183.6,56.69,340.16S183.6,623.62,340.16,623.62,623.62,496.71,623.62,340.16,496.71,56.69,340.16,56.69Zm0,552.76c-148.73,0-269.29-120.57-269.29-269.29S191.43,70.87,340.16,70.87,609.45,191.43,609.45,340.16,488.88,609.45,340.16,609.45Z"/></svg>